<?xml version="1.0" encoding="UTF-8" standalone="no"?>
<svg
   height="90"
   viewBox="0 0 71.998674 90.00187"
   width="72"
   version="1.1"
   id="svg733"
   sodipodi:docname="debian-logo.svg"
   inkscape:version="1.2 (dc2aedaf03, 2022-05-15)"
   xmlns:inkscape="http://www.inkscape.org/namespaces/inkscape"
   xmlns:sodipodi="http://sodipodi.sourceforge.net/DTD/sodipodi-0.dtd"
   xmlns="http://www.w3.org/2000/svg"
   xmlns:svg="http://www.w3.org/2000/svg">
  <defs
     id="defs737" />
  <sodipodi:namedview
     id="namedview735"
     pagecolor="#ffffff"
     bordercolor="#000000"
     borderopacity="0.25"
     inkscape:showpageshadow="2"
     inkscape:pageopacity="0.0"
     inkscape:pagecheckerboard="0"
     inkscape:deskcolor="#d1d1d1"
     showgrid="false"
     inkscape:zoom="6.9243042"
     inkscape:cx="54.518113"
     inkscape:cy="38.63204"
     inkscape:window-width="2282"
     inkscape:window-height="1178"
     inkscape:window-x="-8"
     inkscape:window-y="-8"
     inkscape:window-maximized="1"
     inkscape:current-layer="svg733" />
  <path
     fill="#d70751"
     d="m 43.028542,47.350068 c -1.484752,0.01988 0.27926,0.763246 2.218183,1.062382 0.537651,-0.419387 1.020643,-0.840763 1.453944,-1.2522 -1.205491,0.295162 -2.43384,0.302118 -3.672127,0.189818"
     id="path695"
     style="stroke-width:0.99381" />
  <path
     fill="#d70751"
     d="m 50.995915,45.363442 c 0.887472,-1.221392 1.531461,-2.557073 1.759043,-3.938468 -0.199756,0.983872 -0.731444,1.833579 -1.236299,2.731983 -2.775711,1.748111 -0.262366,-1.037537 -0.002,-2.097933 -2.983417,3.759583 -0.411437,2.253961 -0.520756,3.304418"
     id="path697"
     style="stroke-width:0.99381" />
  <path
     fill="#d70751"
     d="m 53.940573,37.707131 c 0.180874,-2.674342 -0.525725,-1.827616 -0.763246,-0.808961 0.27628,0.145096 0.495912,1.886251 0.763246,0.808961"
     id="path699"
     style="stroke-width:0.99381" />
  <path
     fill="#d70751"
     d="m 37.395628,1.1558008 c 0.79306,0.141121 1.713328,0.2504401 1.581151,0.4402577 0.870578,-0.1918053 1.066358,-0.3647282 -1.581151,-0.4402577"
     id="path701"
     style="stroke-width:0.99381" />
  <path
     fill="#d70751"
     d="m 38.977773,1.5960585 -0.557527,0.1162758 0.519762,-0.047703 0.03777,-0.068573"
     id="path703"
     style="stroke-width:0.99381" />
  <path
     fill="#d70751"
     d="m 63.692829,38.720817 c 0.08944,2.401045 -0.700636,3.567778 -1.415185,5.630927 l -1.284996,0.639019 c -1.050457,2.041286 0.10435,1.295928 -0.647964,2.91882 -1.641774,1.457919 -4.975012,4.560593 -6.042364,4.844823 -0.780141,-0.0169 0.527713,-0.920268 0.698648,-1.273071 -2.195325,1.506616 -1.762024,2.261911 -5.120108,3.179198 l -0.09739,-0.219632 c -8.278436,3.895734 -19.778803,-3.823187 -19.627744,-14.353595 -0.08745,0.66784 -0.251433,0.50088 -0.434294,0.769209 -0.427339,-5.417258 2.502413,-10.858366 7.443635,-13.083506 4.832897,-2.391107 10.498607,-1.41121 13.958059,1.817678 -1.900165,-2.490488 -5.685586,-5.13104 -10.168662,-4.886563 -4.393633,0.07155 -8.505025,2.863166 -9.876482,5.89528 -2.249985,1.416179 -2.512351,5.461978 -3.492248,6.20336 -1.320773,9.699584 2.481543,13.888492 8.914474,18.818783 1.009711,0.681753 0.28423,0.786103 0.419388,1.304872 -2.136691,-0.999773 -4.092509,-2.510364 -5.702481,-4.359844 0.854677,1.249219 1.775938,2.463655 2.967516,3.417712 -2.01644,-0.680759 -4.70867,-4.882587 -5.492786,-5.053522 3.473365,6.219261 14.090235,10.907062 19.652588,8.580553 -2.573967,0.09541 -5.842607,0.05267 -8.732606,-1.015673 -1.217417,-0.625107 -2.866148,-1.918053 -2.570986,-2.159549 7.588731,2.833352 15.425915,2.144642 21.991023,-3.117581 1.671588,-1.301891 3.496223,-3.515106 4.023936,-3.54492 -0.794054,1.19456 0.136152,0.574422 -0.474047,1.628854 1.66165,-2.68428 -0.724488,-1.09319 1.71929,-4.635129 l 0.90238,1.242263 c -0.337896,-2.230109 2.76776,-4.93526 2.451729,-8.459309 0.712561,-1.07729 0.794054,1.16077 0.03876,3.639331 1.048469,-2.749871 0.277273,-3.192117 0.545602,-5.461978 0.289198,0.763245 0.673803,1.5732 0.869583,2.37918 -0.683741,-2.658441 0.698649,-4.475125 1.042507,-6.0205 -0.339883,-0.149071 -1.054432,1.174684 -1.219405,-1.963768 0.02484,-1.363507 0.380629,-0.714549 0.516781,-1.050457 -0.266341,-0.15404 -0.968964,-1.199528 -1.395309,-3.204042 0.307088,-0.47206 0.82685,1.221392 1.248225,1.289965 -0.27131,-1.593077 -0.737406,-2.808507 -0.757283,-4.031887 -1.232324,-2.573967 -0.436282,0.343859 -1.434067,-1.105116 -1.311829,-4.088534 1.087228,-0.949089 1.250213,-2.805525 1.985632,2.877079 3.117581,7.339285 3.639331,9.186778 -0.397524,-2.252967 -1.038531,-4.436367 -1.822647,-6.548213 0.60523,0.255409 -0.97294,-4.634135 0.786103,-1.396303 -1.877311,-6.902009 -8.028,-13.3518346 -13.687747,-16.3769916 0.690698,0.6330568 1.564257,1.4281046 1.2522,1.5533247 C 55.711542,5.8595026 56.20646,5.7273259 55.802973,5.0197333 53.512241,4.0865459 53.359195,5.0962566 51.843635,5.0217209 47.520562,2.7280079 46.687749,2.9714913 42.709529,1.5364299 l 0.180873,0.846726 c -2.863166,-0.9540574 -3.336219,0.3597591 -6.429949,0.00199 -0.18783,-0.14609 0.991822,-0.532682 1.963768,-0.6728092 C 35.655467,2.0780563 35.784662,1.1657389 33.075537,1.8127091 33.742383,1.3446247 34.449976,1.0335622 35.161543,0.63603827 32.904601,0.77318402 29.771119,1.9498548 30.738096,0.87852786 27.056031,2.5222893 20.515768,4.8289218 16.845629,8.2704851 L 16.730347,7.4992887 C 15.048821,9.5177164 9.3970239,13.527739 8.9468281,16.14444 L 8.4966322,16.24879 C 7.6230734,17.730561 7.055608,19.409105 6.3619288,20.932616 5.2180537,22.883464 4.6843778,21.683936 4.8473627,21.990029 2.5963835,26.553604 1.4763598,30.387722 0.51137053,33.534124 1.1990869,34.562717 0.52826529,39.727547 0.78764965,43.860802 -0.34131828,64.27763 15.1164,84.099167 32.013154,88.674667 c 2.476574,0.887472 6.158639,0.85567 9.291128,0.943125 -3.694985,-1.057413 -4.172014,-0.559515 -7.77358,-1.814696 -2.596825,-1.224374 -3.165285,-2.620677 -5.00582,-4.217729 l 0.728462,1.286984 c -3.607529,-1.277046 -2.097932,-1.580158 -5.033646,-2.50937 l 0.778153,-1.01468 c -1.169715,-0.08944 -3.097706,-1.969731 -3.624425,-3.014225 l -1.280027,0.05068 c -1.53643,-1.894201 -2.356323,-3.262677 -2.2957,-4.323072 L 17.384274,74.79909 C 16.916189,73.995098 11.728502,67.6854 14.419739,69.154251 13.919853,68.699086 13.254994,68.411875 12.534482,67.10104 l 0.547589,-0.625107 c -1.292946,-1.666619 -2.383156,-3.802316 -2.299676,-4.513884 0.690698,0.932194 1.169714,1.107104 1.644755,1.267108 C 9.1565219,55.115698 8.9726671,62.78294 6.4970869,54.970601 l 0.522744,-0.04174 C 6.6193255,54.321644 6.3738545,53.666723 6.0518601,53.02174 L 6.2804364,50.750885 C 3.9270948,48.031821 5.6225343,39.17797 5.9634111,34.323209 6.1969564,32.349503 7.928173,30.247595 9.2429834,26.951128 L 8.4419727,26.813982 C 9.9744279,24.142621 17.189487,16.08183 20.532663,16.495255 c 1.618916,-2.033335 -0.321994,-0.008 -0.63902,-0.518769 3.556846,-3.680077 4.674882,-2.599806 7.074932,-3.262677 2.586887,-1.535436 -2.221164,0.600261 -0.994803,-0.585354 4.475125,-1.141888 3.170253,-2.597819 9.006898,-3.1772102 0.616162,0.3498211 -1.428105,0.5406326 -1.940911,0.9948037 3.726787,-1.8246348 11.795529,-1.4082285 17.038869,1.0116985 6.079135,2.84329 12.913565,11.243964 13.183881,19.147733 l 0.307087,0.08249 c -0.155034,3.142427 0.481004,6.776789 -0.623118,10.114003 l 0.746351,-1.581152"
     id="path705"
     style="stroke-width:0.99381" />
  <path
     fill="#d70751"
     d="m 26.81851,49.387378 -0.209694,1.040519 c 0.976915,1.326736 1.752087,2.763785 2.997331,3.797347 -0.896417,-1.748111 -1.561276,-2.470611 -2.787637,-4.837866"
     id="path707"
     style="stroke-width:0.99381" />
  <path
     fill="#d70751"
     d="m 29.125143,49.297935 c -0.516781,-0.572434 -0.820887,-1.260151 -1.164745,-1.943892 0.327957,1.203504 0.999772,2.23806 1.622891,3.291498 l -0.458146,-1.347606"
     id="path709"
     style="stroke-width:0.99381" />
  <path
     fill="#d70751"
     d="m 69.954824,40.423214 -0.217644,0.548583 c -0.399511,2.840308 -1.26512,5.650802 -2.588874,8.257565 1.462888,-2.749872 2.406013,-5.758134 2.806518,-8.806148"
     id="path711"
     style="stroke-width:0.99381" />
  <path
     fill="#d70751"
     d="M 37.690789,0.44323917 C 38.693543,0.07652335 40.157425,0.24149578 41.224777,0 39.835431,0.11627575 38.453041,0.18584243 37.088541,0.35975915 l 0.602248,0.08348"
     id="path713"
     style="stroke-width:0.99381" />
  <path
     fill="#d70751"
     d="m 2.4393615,19.18848 c 0.2315577,2.140666 -1.60997184,2.972485 0.407462,1.559287 1.0832527,-2.438809 -0.4213753,-0.672809 -0.407462,-1.559287"
     id="path715"
     style="stroke-width:0.99381" />
  <path
     fill="#d70751"
     d="M 0.06614374,29.100739 C 0.53224053,27.672634 0.61572056,26.81597 0.79361251,25.988126 -0.49138356,27.631888 0.20130187,27.982702 0.06614374,29.100739"
     id="path717"
     style="stroke-width:0.99381" />
</svg>
