<?xml version="1.0" encoding="UTF-8" standalone="no"?>
<svg
   height="801.75299"
   viewBox="0 0 604.98892 801.76965"
   width="605.00006"
   version="1.1"
   id="svg37054"
   sodipodi:docname="Debian-OpenLogo.svg"
   inkscape:export-filename="Debian-OpenLogo.png"
   inkscape:export-xdpi="96"
   inkscape:export-ydpi="96"
   xmlns:inkscape="http://www.inkscape.org/namespaces/inkscape"
   xmlns:sodipodi="http://sodipodi.sourceforge.net/DTD/sodipodi-0.dtd"
   xmlns="http://www.w3.org/2000/svg"
   xmlns:svg="http://www.w3.org/2000/svg">
  <defs
     id="defs37058" />
  <sodipodi:namedview
     id="namedview37056"
     pagecolor="#ffffff"
     bordercolor="#000000"
     borderopacity="0.25"
     inkscape:showpageshadow="2"
     inkscape:pageopacity="0.0"
     inkscape:pagecheckerboard="0"
     inkscape:deskcolor="#d1d1d1"
     showgrid="false" />
  <path
     fill="#d70751"
     d="m 339.17532,265.05286 c -8.31124,0.11126 1.56322,4.27245 12.41679,5.94693 3.00962,-2.34762 5.71328,-4.70636 8.13878,-7.00948 -6.74801,1.65224 -13.62398,1.69118 -20.55557,1.06255"
     id="path37016"
     style="stroke-width:5.56308" />
  <path
     fill="#d70751"
     d="m 383.77451,253.93227 c 4.96783,-6.83703 8.57271,-14.3138 9.84665,-22.04648 -1.11818,5.50745 -4.09442,10.26388 -6.92047,15.2929 -15.53767,9.78546 -1.46865,-5.80785 -0.0111,-11.74366 -16.70036,21.04513 -2.30312,12.61706 -2.91506,18.49724"
     id="path37018"
     style="stroke-width:5.56308" />
  <path
     fill="#d70751"
     d="m 400.25791,211.07431 c 1.01248,-14.97024 -2.94286,-10.2305 -4.27244,-4.52834 1.54654,0.81221 2.77598,10.55872 4.27244,4.52834"
     id="path37020"
     style="stroke-width:5.56308" />
  <path
     fill="#d70751"
     d="m 307.64379,6.46986 c 4.43933,0.7899571 9.59075,1.4018957 8.85086,2.4644436 4.87325,-1.0736741 5.96918,-2.0416497 -8.85086,-2.4644436"
     id="path37022"
     style="stroke-width:5.56308" />
  <path
     fill="#d70751"
     d="m 316.50021,8.9343036 -3.12089,0.6508802 2.90949,-0.2670278 0.2114,-0.3838524"
     id="path37024"
     style="stroke-width:5.56308" />
  <path
     fill="#d70751"
     d="m 454.8484,216.74865 c 0.50068,13.4404 -3.92197,19.97145 -7.92182,31.5204 l -7.19306,3.57706 c -5.88018,11.42657 0.58412,7.25426 -3.62713,16.33876 -9.1902,8.16104 -27.84877,25.52897 -33.82352,27.12001 -4.36701,-0.0946 2.954,-5.15141 3.91085,-7.1263 -12.28884,8.43362 -9.86334,12.66156 -28.66098,17.79628 l -0.54518,-1.22944 c -46.34044,21.80727 -110.71638,-21.40116 -109.8708,-80.34753 -0.48955,3.73838 -1.40746,2.80379 -2.43106,4.30582 -2.39213,-30.32434 14.00783,-60.78219 41.66745,-73.23793 27.05325,-13.38476 58.76836,-7.89957 78.13344,10.17487 -10.63661,-13.94107 -31.82637,-28.72217 -56.92142,-27.35365 -24.59437,0.40054 -47.60882,16.02723 -55.28587,33.00018 -12.59481,7.92738 -14.06346,30.57468 -19.54866,34.72473 -7.39333,54.29565 13.89101,77.74402 49.90081,105.34245 5.65209,3.81627 1.59105,4.4004 2.34762,7.30432 -11.96061,-5.59645 -22.90875,-14.05233 -31.92094,-24.40522 4.78425,6.99279 9.94122,13.79087 16.61135,19.13142 -11.28748,-3.8107 -26.35786,-27.3314 -30.74713,-28.28825 19.44296,34.81375 78.87332,61.05479 110.00987,48.03162 -14.40837,0.53406 -32.70534,0.29484 -48.88277,-5.68547 -6.81477,-3.49917 -16.04391,-10.73674 -14.39168,-12.08857 42.47966,15.86034 86.3501,12.00513 123.09979,-17.45137 9.3571,-7.28763 19.57091,-19.67661 22.52491,-19.8435 -4.4449,6.68682 0.76214,3.21546 -2.65359,9.11788 9.30147,-15.02587 -4.05548,-6.11938 9.62412,-25.94619 l 5.05128,6.95384 c -1.89145,-12.48354 15.49317,-27.62624 13.72411,-47.35292 3.98873,-6.03037 4.4449,6.49768 0.21696,20.372 5.86905,-15.39304 1.5521,-17.86861 3.05413,-30.57468 1.61886,4.27244 3.77177,8.80635 4.8677,13.31801 -3.8274,-14.88124 3.91084,-25.05054 5.83567,-33.70113 -1.90258,-0.83446 -5.90243,6.57556 -6.8259,-10.99264 0.13908,-7.63255 2.13066,-3.99986 2.8928,-5.88018 -1.49091,-0.86227 -5.424,-6.71463 -7.81056,-17.93536 1.71899,-2.64246 4.62848,6.83702 6.98722,7.22087 -1.51872,-8.91761 -4.1278,-15.72126 -4.23906,-22.5694 -6.89822,-14.40838 -2.44219,1.92482 -8.02752,-6.18615 -7.34327,-22.8865 6.086,-5.31274 6.99835,-15.70457 11.11503,16.10511 17.45138,41.08334 20.37199,51.4251 -2.22523,-12.6115 -5.81342,-24.83358 -10.20268,-36.65512 3.38791,1.42971 -5.44626,-25.94064 4.40039,-7.81613 -10.50865,-38.635578 -44.93854,-74.739955 -76.62028,-91.673965 3.86634,3.543681 8.75629,7.994143 7.00948,8.695091 -15.76576,-9.373787 -12.99535,-10.113676 -15.25396,-14.074588 -12.82289,-5.22373 -13.67961,0.428357 -22.1633,0.01113 C 364.32043,15.27065 359.65857,16.633604 337.38957,8.6005189 l 1.01248,4.7397431 c -16.02723,-5.3405555 -18.67526,2.013834 -35.99312,0.01113 -1.05142,-0.817773 5.55195,-2.98181 10.99264,-3.7662042 -15.49873,2.0472132 -14.77553,-3.0596931 -29.94048,0.5618712 3.73282,-2.6202102 7.69373,-4.3614537 11.6769,-6.5866849 -12.63375,0.7677047 -30.17414,7.3543889 -24.76126,1.357391 C 249.76552,14.119093 213.1549,27.030997 192.61046,46.295937 l -0.64532,-4.316949 C 182.55241,53.2776 150.91519,75.724621 148.39511,90.372206 l -2.52007,0.584123 c -4.88995,8.294549 -8.06647,17.690591 -11.9495,26.218791 -6.4031,10.92032 -9.39047,4.20568 -8.47813,5.91911 -12.60037,25.54566 -18.86996,47.00801 -24.27171,64.62072 3.84965,5.75778 0.0946,34.6691 1.54654,57.80594 -6.319658,114.28788 80.20846,225.24348 174.79192,250.85589 13.86319,4.96783 34.47439,4.78981 52.00921,5.27936 -20.68352,-5.91911 -23.3538,-3.13201 -43.51439,-10.15818 -14.53633,-6.85371 -17.71841,-14.66984 -28.02123,-23.6097 l 4.07774,7.20418 c -20.19398,-7.14855 -11.74366,-8.84529 -28.17699,-14.04677 l 4.35589,-5.6799 c -6.54775,-0.50068 -17.34012,-11.02602 -20.28855,-16.87282 l -7.16524,0.28372 c -8.60052,-10.60323 -13.19006,-18.26359 -12.85071,-24.19939 l -2.31424,4.1278 c -2.62021,-4.50053 -31.65948,-39.82051 -16.59467,-31.59828 -2.79823,-2.54789 -6.51992,-4.15562 -10.55316,-11.49332 l 3.06526,-3.49918 c -7.23756,-9.32928 -13.34026,-21.28434 -12.87296,-25.2675 3.86634,5.21817 6.54774,6.19727 9.20689,7.09293 -18.30809,-45.41698 -19.33726,-2.49783 -33.19489,-46.22918 l 2.92618,-0.23365 c -2.24192,-3.39904 -3.616,-7.06511 -5.41844,-10.67555 l 1.27951,-12.71163 c -13.17337,-15.22059 -3.68276,-64.78205 -1.77462,-91.95769 1.30732,-11.04827 10.99821,-22.81418 18.35816,-41.26691 l -4.48384,-0.76771 c 8.57826,-14.95355 48.96621,-60.075678 67.68041,-57.761438 9.06225,-11.382058 -1.80244,-0.0445 -3.57706,-2.903927 19.91025,-20.600078 26.16872,-14.553012 39.60355,-18.263585 14.48069,-8.594956 -12.43348,3.360099 -5.56864,-3.276653 25.05054,-6.391977 17.74622,-14.541887 50.41818,-17.785162 3.44911,1.958204 -7.99415,3.026315 -10.86469,5.568642 20.86154,-10.213812 66.02817,-7.882882 95.37897,5.663213 34.02935,15.915967 72.28664,62.94067 73.7998,107.18383 l 1.71899,0.46173 c -0.86784,17.59046 2.69253,37.93463 -3.48805,56.61545 l 4.17787,-8.85086"
     id="path37026"
     style="stroke-width:5.56308" />
  <path
     fill="#d70751"
     d="m 248.43595,276.45717 -1.17381,5.82454 c 5.4685,7.42671 9.8077,15.47093 16.77824,21.25653 -5.0179,-9.78546 -8.73959,-13.82982 -15.60443,-27.08107"
     id="path37028"
     style="stroke-width:5.56308" />
  <path
     fill="#d70751"
     d="m 261.34785,275.95649 c -2.8928,-3.20433 -4.5951,-7.05398 -6.51993,-10.88138 1.83582,6.73689 5.59646,12.52806 9.08451,18.42492 l -2.56458,-7.54354"
     id="path37030"
     style="stroke-width:5.56308" />
  <path
     fill="#d70751"
     d="m 489.90136,226.27821 -1.21832,3.07082 c -2.23635,15.89927 -7.0818,31.63166 -14.49182,46.22361 8.18885,-15.39304 13.46822,-32.23247 15.71014,-49.29443"
     id="path37032"
     style="stroke-width:5.56308" />
  <path
     fill="#d70751"
     d="M 309.29602,2.4811329 C 314.90917,0.42835702 323.10358,1.351828 329.07833,0 321.30115,0.65088015 313.5629,1.0402956 305.9248,2.0138343 l 3.37122,0.4672986"
     id="path37034"
     style="stroke-width:5.56308" />
  <path
     fill="#d70751"
     d="m 111.96808,107.41191 c 1.29619,11.98287 -9.01219,16.63917 2.28086,8.72847 6.06375,-13.65179 -2.35875,-3.7662 -2.28086,-8.72847"
     id="path37036"
     style="stroke-width:5.56308" />
  <path
     fill="#d70751"
     d="m 98.683444,162.89806 c 2.609086,-7.99415 3.076386,-12.78952 4.072176,-17.42356 -7.193062,9.20133 -3.315597,11.16509 -4.072176,17.42356"
     id="path37038"
     style="stroke-width:5.56308" />
  <path
     d="m 74.751082,698.22195 c -0.250339,0.26146 -0.250339,41.75646 -0.767705,52.58777 -0.511803,8.75629 -1.290634,27.57618 -19.849063,27.57618 -19.075795,0 -23.715402,-21.91296 -25.261938,-31.44251 -1.802437,-10.56985 -1.802437,-19.34283 -1.802437,-23.19804 0,-12.37785 0.773267,-46.93013 29.901545,-46.93013 8.767411,0 13.66292,2.58683 17.529259,4.63961 l 0.250339,16.80049 z M 0,728.65198 c 0,72.68718 38.668957,72.68718 44.337733,72.68718 15.982724,0 26.296671,-8.76741 30.674814,-23.9713 l 0.517366,22.93657 c 4.901072,-0.26146 9.796581,-0.77327 17.785161,-0.77327 2.83717,0 5.15141,0 7.220876,0.26147 2.0639,0 4.12224,0.25034 6.44204,0.5118 -4.12224,-8.24448 -7.215308,-26.80291 -7.215308,-67.02953 0,-39.18076 0,-105.42589 3.348968,-125.53642 -9.273647,4.38927 -17.273353,7.22644 -34.802613,8.76741 6.959411,7.47678 6.959411,11.34312 6.959411,45.36134 -4.889946,-1.54097 -11.081652,-3.34897 -21.6515,-3.34897 C 7.4767771,658.51826 0,698.73931 0,728.66867"
     id="path37040"
     style="stroke-width:5.56308" />
  <path
     d="m 139.80016,715.46749 c 0.26146,-21.3956 4.64517,-40.4714 22.94213,-40.4714 20.11053,0 21.64594,22.16331 21.13413,40.4714 z m 69.5941,2.55901 c 0,-30.16301 -5.92467,-59.81421 -44.07626,-59.81421 -52.58222,0 -52.58222,58.27324 -52.58222,70.6344 0,52.32632 23.45394,72.94865 62.89616,72.94865 17.51814,0 26.03521,-2.56458 30.67482,-3.86634 -0.25591,-9.27922 1.02916,-15.20946 2.58683,-23.19804 -5.424,3.3601 -12.38342,7.73824 -27.84877,7.73824 -40.2155,0 -40.73286,-36.61618 -40.73286,-49.24437 h 68.58163 l 0.50067,-15.24283"
     id="path37042"
     style="stroke-width:5.56308" />
  <path
     d="m 293.25767,729.15266 c 0,23.97131 -4.37814,56.19822 -34.27969,56.19822 -4.1278,0 -9.27921,-0.7844 -12.62819,-1.5521 -0.51736,-9.27922 -0.51736,-25.26194 -0.51736,-43.82037 0,-22.17443 2.31424,-33.75676 4.1278,-39.44222 5.40731,-18.29697 17.5237,-18.54731 19.83794,-18.54731 19.59316,0 23.4595,27.03656 23.4595,47.17491 z m -73.97782,28.09355 c 0,19.08135 0,29.90154 -3.09307,38.14602 10.56985,4.12781 23.70984,6.44205 39.44223,6.44205 10.05248,0 39.18076,0 54.90202,-32.21579 7.47677,-14.95355 10.05248,-35.06408 10.05248,-50.27354 0,-9.27921 -1.03473,-29.64008 -8.50595,-42.53529 -7.20975,-12.10526 -18.81433,-18.29697 -31.18105,-18.29697 -24.75014,0 -31.96545,20.62234 -35.82623,31.19218 0,-13.14555 0.25034,-59.02982 2.30868,-82.48932 -16.75043,7.73824 -27.06994,9.01775 -38.14603,10.05248 10.05249,4.11668 10.05249,21.14526 10.05249,76.57021 v 63.4024"
     id="path37044"
     style="stroke-width:5.56308" />
  <path
     d="m 370.13941,800.30443 c -5.16254,-0.77327 -8.77854,-1.29063 -16.25532,-1.29063 -8.23335,0 -13.91882,0.52293 -19.83793,1.29063 2.5757,-4.90107 3.60487,-7.22644 4.37814,-23.9713 1.03473,-22.9477 1.29063,-84.30289 -0.5118,-97.19254 -1.29064,-9.80215 -3.60488,-11.34312 -7.21532,-13.91882 21.13414,-2.06391 27.06438,-3.60488 36.8554,-8.24449 -2.05278,11.33199 -2.32537,17.01746 -2.32537,34.27969 -0.50624,88.89799 -0.7677,98.46649 4.9122,109.03634"
     id="path37046"
     style="stroke-width:5.56308" />
  <path
     d="m 452.68436,727.31685 c -0.5118,16.24418 -0.77326,27.5873 -5.16253,36.60505 -5.41288,11.60458 -14.43063,14.95355 -21.13414,14.95355 -15.48204,0 -18.81989,-12.88408 -18.81989,-25.51227 0,-24.22721 21.65706,-26.04633 31.44252,-26.04633 z m -70.89587,31.70954 c 0,16.24419 4.90108,32.47725 19.34283,39.44223 6.44204,2.83717 12.88409,2.83717 14.95355,2.83717 23.72097,0 31.70398,-17.53483 36.60506,-28.36058 -0.26147,11.34312 0,18.29697 0.77326,27.32584 4.63961,-0.26146 9.27922,-0.77326 17.01746,-0.77326 4.37814,0 8.50595,0.5118 12.88409,0.77326 -2.83717,-4.37814 -4.37814,-6.96497 -5.16254,-17.01745 -0.5118,-9.79102 -0.5118,-19.5876 -0.5118,-33.25052 l 0.26146,-52.58778 c 0,-19.59872 -5.16253,-38.93042 -43.83149,-38.93042 -25.51228,0 -40.46027,7.73824 -47.93704,11.60458 3.09863,5.67434 5.67434,10.55872 7.98858,21.65706 10.06361,-8.76741 23.20916,-13.40702 36.60505,-13.40702 21.40673,0 21.40673,14.18029 21.40673,34.27969 -4.90108,-0.25034 -9.02888,-0.76214 -15.99385,-0.76214 -32.74984,0.0556 -54.40135,12.68382 -54.40135,47.23054"
     id="path37048"
     style="stroke-width:5.56308" />
  <path
     d="m 601.14623,774.7699 c 0.26147,8.76741 0.26147,18.04663 3.86634,25.52341 -5.6799,-0.51181 -9.02887,-1.29064 -19.5876,-1.29064 -6.1917,0 -9.54068,0.52293 -14.44175,1.29064 1.02361,-3.34898 1.5521,-4.63961 2.0639,-9.02888 0.77327,-5.91912 1.29064,-25.77374 1.29064,-32.73872 v -27.83764 c 0,-12.11638 0,-29.65121 -0.7844,-35.83179 -0.5118,-4.37814 -1.79131,-16.23306 -16.75599,-16.23306 -14.69209,0 -19.5876,10.82019 -21.3956,19.5876 -2.05277,9.01775 -2.05277,18.81989 -2.05277,56.96592 0.25034,33.00018 0.25034,36.08213 2.82604,45.111 -4.37814,-0.5118 -9.79102,-1.0236 -17.5237,-1.0236 -6.1917,0 -10.31394,0.25033 -15.45979,1.0236 1.80244,-4.1278 2.83717,-6.1917 3.34897,-20.62233 0.52293,-14.18028 1.5521,-83.78552 -0.78439,-100.27448 -1.27951,-10.06361 -3.86634,-12.37785 -6.69238,-14.95356 20.88379,-1.03473 27.57618,-4.38927 34.02935,-7.72711 v 27.31471 c 3.0875,-7.99971 9.52955,-25.78487 35.31442,-25.78487 32.22691,0 32.47725,23.4595 32.73871,38.9193 v 77.48255"
     id="path37050"
     style="stroke-width:5.56308" />
  <path
     fill="#d70751"
     d="m 372.31457,620.45011 -21.35109,21.33997 -21.33997,-21.33997 21.33997,-21.33996 21.35109,21.36222"
     id="path37052"
     style="stroke-width:5.56308" />
</svg>
